<?xml version="1.0" encoding="UTF-8"?><svg xmlns="http://www.w3.org/2000/svg" xmlns:xlink="http://www.w3.org/1999/xlink" contentStyleType="text/css" height="208px" preserveAspectRatio="none" style="width:840px;height:208px;background:#FFFFFF;" version="1.1" viewBox="0 0 840 208" width="840px" zoomAndPan="magnify">
    <defs/>
    <g>
        <!--class ReprodutorMusical-->
        <g id="elem_ReprodutorMusical">
            <rect codeLine="2" fill="#F1F1F1" height="86.1358" id="ReprodutorMusical" rx="2.5" ry="2.5" style="stroke:#181818;stroke-width:0.5;" width="252" x="7" y="115"/>
            <ellipse cx="68.75" cy="131" fill="#B4A7E5" rx="11" ry="11" style="stroke:#181818;stroke-width:1.0;"/>
            <path d="M64.7813,137.5 L64.7813,135.7969 L67.1406,135.5313 L67.1406,127.3281 L64.7813,127.0625 L64.7813,125.3594 L71.9219,125.3594 L71.9219,127.0625 L69.5,127.3281 L69.5,135.5313 L71.9219,135.7969 L71.9219,137.5 L64.7813,137.5 Z " fill="#000000"/>
            <text fill="#000000" font-family="sans-serif" font-size="14" font-style="italic" lengthAdjust="spacing" textLength="120" x="89.25" y="136.432">ReprodutorMusical</text>
            <line style="stroke:#181818;stroke-width:0.5;" x1="8" x2="258" y1="147" y2="147"/>
            <line style="stroke:#181818;stroke-width:0.5;" x1="8" x2="258" y1="155" y2="155"/>
            <ellipse cx="18" cy="170.034" fill="#84BE84" rx="3" ry="3" style="stroke:#038048;stroke-width:1.0;"/>
            <text fill="#000000" font-family="sans-serif" font-size="14" lengthAdjust="spacing" textLength="124" x="27" y="173.9659">exemploMetodo1()</text>
            <ellipse cx="18" cy="189.1019" fill="#84BE84" rx="3" ry="3" style="stroke:#038048;stroke-width:1.0;"/>
            <text fill="#000000" font-family="sans-serif" font-size="14" lengthAdjust="spacing" textLength="226" x="27" y="193.0339">exemploMetodo2(String exemplo)</text>
        </g>
        <!--class AparelhoTelefonico-->
        <g id="elem_AparelhoTelefonico">
            <rect codeLine="7" fill="#F1F1F1" height="86.1358" id="AparelhoTelefonico" rx="2.5" ry="2.5" style="stroke:#181818;stroke-width:0.5;" width="252" x="294" y="115"/>
            <ellipse cx="355.75" cy="131" fill="#B4A7E5" rx="11" ry="11" style="stroke:#181818;stroke-width:1.0;"/>
            <path d="M351.7813,137.5 L351.7813,135.7969 L354.1406,135.5313 L354.1406,127.3281 L351.7813,127.0625 L351.7813,125.3594 L358.9219,125.3594 L358.9219,127.0625 L356.5,127.3281 L356.5,135.5313 L358.9219,135.7969 L358.9219,137.5 L351.7813,137.5 Z " fill="#000000"/>
            <text fill="#000000" font-family="sans-serif" font-size="14" font-style="italic" lengthAdjust="spacing" textLength="120" x="376.25" y="136.432">AparelhoTelefonico</text>
            <line style="stroke:#181818;stroke-width:0.5;" x1="295" x2="545" y1="147" y2="147"/>
            <line style="stroke:#181818;stroke-width:0.5;" x1="295" x2="545" y1="155" y2="155"/>
            <ellipse cx="305" cy="170.034" fill="#84BE84" rx="3" ry="3" style="stroke:#038048;stroke-width:1.0;"/>
            <text fill="#000000" font-family="sans-serif" font-size="14" lengthAdjust="spacing" textLength="124" x="314" y="173.9659">exemploMetodo1()</text>
            <ellipse cx="305" cy="189.1019" fill="#84BE84" rx="3" ry="3" style="stroke:#038048;stroke-width:1.0;"/>
            <text fill="#000000" font-family="sans-serif" font-size="14" lengthAdjust="spacing" textLength="226" x="314" y="193.0339">exemploMetodo2(String exemplo)</text>
        </g>
        <!--class NavegadorInternet-->
        <g id="elem_NavegadorInternet">
            <rect codeLine="12" fill="#F1F1F1" height="86.1358" id="NavegadorInternet" rx="2.5" ry="2.5" style="stroke:#181818;stroke-width:0.5;" width="252" x="581" y="115"/>
            <ellipse cx="642.25" cy="131" fill="#B4A7E5" rx="11" ry="11" style="stroke:#181818;stroke-width:1.0;"/>
            <path d="M638.2813,137.5 L638.2813,135.7969 L640.6406,135.5313 L640.6406,127.3281 L638.2813,127.0625 L638.2813,125.3594 L645.4219,125.3594 L645.4219,127.0625 L643,127.3281 L643,135.5313 L645.4219,135.7969 L645.4219,137.5 L638.2813,137.5 Z " fill="#000000"/>
            <text fill="#000000" font-family="sans-serif" font-size="14" font-style="italic" lengthAdjust="spacing" textLength="121" x="662.75" y="136.432">NavegadorInternet</text>
            <line style="stroke:#181818;stroke-width:0.5;" x1="582" x2="832" y1="147" y2="147"/>
            <line style="stroke:#181818;stroke-width:0.5;" x1="582" x2="832" y1="155" y2="155"/>
            <ellipse cx="592" cy="170.034" fill="#84BE84" rx="3" ry="3" style="stroke:#038048;stroke-width:1.0;"/>
            <text fill="#000000" font-family="sans-serif" font-size="14" lengthAdjust="spacing" textLength="124" x="601" y="173.9659">exemploMetodo1()</text>
            <ellipse cx="592" cy="189.1019" fill="#84BE84" rx="3" ry="3" style="stroke:#038048;stroke-width:1.0;"/>
            <text fill="#000000" font-family="sans-serif" font-size="14" lengthAdjust="spacing" textLength="226" x="601" y="193.0339">exemploMetodo2(String exemplo)</text>
        </g>
        <!--class Iphone-->
        <g id="elem_Iphone">
            <rect codeLine="17" fill="#F1F1F1" height="48" id="Iphone" rx="2.5" ry="2.5" style="stroke:#181818;stroke-width:0.5;" width="80" x="380" y="7"/>
            <ellipse cx="395" cy="23" fill="#ADD1B2" rx="11" ry="11" style="stroke:#181818;stroke-width:1.0;"/>
            <path d="M394.4688,29.9219 Q392.7188,29.9219 391.5781,29.1875 Q390.4531,28.4375 389.8906,27.0938 Q389.3438,25.7344 389.3438,23.9375 Q389.3438,21.9063 390,20.4531 Q390.6563,19 391.9375,18.2188 Q393.2188,17.4375 395.0938,17.4375 Q395.9844,17.4375 396.6563,17.625 Q397.3281,17.7969 398.0156,18.1406 L397.2031,20.1563 Q396.5781,19.8438 396.0313,19.7188 Q395.5,19.5938 395.0156,19.5938 Q393.8438,19.5938 393.1406,20.125 Q392.4375,20.6563 392.1406,21.6094 Q391.8438,22.5625 391.8438,23.8281 Q391.8438,25.8438 392.5625,26.8125 Q393.2813,27.7656 394.875,27.7656 Q395.4688,27.7656 396.0938,27.6094 Q396.7188,27.4531 397.5469,27.0781 L397.5469,29.2969 Q396.8125,29.6094 396.0156,29.7656 Q395.2344,29.9219 394.4688,29.9219 Z " fill="#000000"/>
            <text fill="#000000" font-family="sans-serif" font-size="14" lengthAdjust="spacing" textLength="48" x="409" y="28.432">Iphone</text>
            <line style="stroke:#181818;stroke-width:0.5;" x1="381" x2="459" y1="39" y2="39"/>
            <line style="stroke:#181818;stroke-width:0.5;" x1="381" x2="459" y1="47" y2="47"/>
        </g>
        <!--link Iphone to ReprodutorMusical-->
        <g id="link_Iphone_ReprodutorMusical">
            <path codeLine="19" d="M379.79,49.53 C341.22,66.33 286.9805,89.9732 235.9405,112.2132 " fill="none" id="Iphone-to-ReprodutorMusical" style="stroke:#181818;stroke-width:1.0;"/>
            <polygon fill="#181818" points="230.44,114.61,240.2886,114.6818,235.0237,112.6127,237.0929,107.3478,230.44,114.61" style="stroke:#181818;stroke-width:1.0;"/>
        </g>
        <!--link Iphone to AparelhoTelefonico-->
        <g id="link_Iphone_AparelhoTelefonico">
            <path codeLine="20" d="M420,55.24 C420,71.91 420,88.85 420,108.73 " fill="none" id="Iphone-to-AparelhoTelefonico" style="stroke:#181818;stroke-width:1.0;"/>
            <polygon fill="#181818" points="420,114.73,424,105.73,420,109.73,416,105.73,420,114.73" style="stroke:#181818;stroke-width:1.0;"/>
        </g>
        <!--link Iphone to NavegadorInternet-->
        <g id="link_Iphone_NavegadorInternet">
            <path codeLine="21" d="M460.21,49.53 C498.78,66.33 553.0195,89.9732 604.0595,112.2132 " fill="none" id="Iphone-to-NavegadorInternet" style="stroke:#181818;stroke-width:1.0;"/>
            <polygon fill="#181818" points="609.56,114.61,602.9071,107.3478,604.9763,112.6127,599.7114,114.6818,609.56,114.61" style="stroke:#181818;stroke-width:1.0;"/>
        </g>
        <!--SRC=[hP112i8m44NtESKiMwGBFO3Wiekwq5uW9Bzj86R2D1MXU7Sh52d4dSvgU1yUCz-51Ecq0LqGXUsKM9ffT4PxcXKjiyC3j-YvGMBB-wByGW_5DOaBFQsqL4-bt4TzYbhW1sxXqN5mXl_dFkixUcrPwZSAIB-gZTVZI7KSE83c1QnhLHtpZhPX_kKspUvKBm00]-->
    </g>
</svg>
