<?xml version="1.0" encoding="us-ascii" standalone="no"?><svg xmlns="http://www.w3.org/2000/svg" xmlns:xlink="http://www.w3.org/1999/xlink" contentStyleType="text/css" height="183px" preserveAspectRatio="none" style="width:797px;height:183px;background:#FFFFFF;" version="1.1" viewBox="0 0 797 183" width="797px" zoomAndPan="magnify"><defs/><g><!--class ReprodutorMusical--><g id="elem_ReprodutorMusical"><rect codeLine="2" fill="#F1F1F1" height="105.2038" id="ReprodutorMusical" rx="2.5" ry="2.5" style="stroke:#181818;stroke-width:0.5;" width="248" x="542.5" y="70.95"/><ellipse cx="602.25" cy="86.95" fill="#B4A7E5" rx="11" ry="11" style="stroke:#181818;stroke-width:1.0;"/><path d="M598.2813,93.45 L598.2813,91.7469 L600.6406,91.4813 L600.6406,83.2781 L598.2813,83.0125 L598.2813,81.3094 L605.4219,81.3094 L605.4219,83.0125 L603,83.2781 L603,91.4813 L605.4219,91.7469 L605.4219,93.45 L598.2813,93.45 Z " fill="#000000"/><text fill="#000000" font-family="sans-serif" font-size="14" font-style="italic" lengthAdjust="spacing" textLength="120" x="622.75" y="92.382">ReprodutorMusical</text><line style="stroke:#181818;stroke-width:0.5;" x1="543.5" x2="789.5" y1="102.95" y2="102.95"/><line style="stroke:#181818;stroke-width:0.5;" x1="543.5" x2="789.5" y1="110.95" y2="110.95"/><ellipse cx="553.5" cy="125.984" fill="#84BE84" rx="3" ry="3" style="stroke:#038048;stroke-width:1.0;"/><text fill="#000000" font-family="sans-serif" font-size="14" lengthAdjust="spacing" textLength="46" x="562.5" y="129.9159">tocar();</text><ellipse cx="553.5" cy="145.0519" fill="#84BE84" rx="3" ry="3" style="stroke:#038048;stroke-width:1.0;"/><text fill="#000000" font-family="sans-serif" font-size="14" lengthAdjust="spacing" textLength="59" x="562.5" y="148.9839">pausar();</text><ellipse cx="553.5" cy="164.1198" fill="#84BE84" rx="3" ry="3" style="stroke:#038048;stroke-width:1.0;"/><text fill="#000000" font-family="sans-serif" font-size="14" lengthAdjust="spacing" textLength="222" x="562.5" y="168.0518">selecionarMusica(String musica);</text></g><!--class AparelhoTelefonico--><g id="elem_AparelhoTelefonico"><rect codeLine="8" fill="#F1F1F1" height="105.2038" id="AparelhoTelefonico" rx="2.5" ry="2.5" style="stroke:#181818;stroke-width:0.5;" width="167" x="341" y="70.95"/><ellipse cx="362.75" cy="86.95" fill="#B4A7E5" rx="11" ry="11" style="stroke:#181818;stroke-width:1.0;"/><path d="M358.7813,93.45 L358.7813,91.7469 L361.1406,91.4813 L361.1406,83.2781 L358.7813,83.0125 L358.7813,81.3094 L365.9219,81.3094 L365.9219,83.0125 L363.5,83.2781 L363.5,91.4813 L365.9219,91.7469 L365.9219,93.45 L358.7813,93.45 Z " fill="#000000"/><text fill="#000000" font-family="sans-serif" font-size="14" font-style="italic" lengthAdjust="spacing" textLength="120" x="378.25" y="92.382">AparelhoTelefonico</text><line style="stroke:#181818;stroke-width:0.5;" x1="342" x2="507" y1="102.95" y2="102.95"/><line style="stroke:#181818;stroke-width:0.5;" x1="342" x2="507" y1="110.95" y2="110.95"/><ellipse cx="352" cy="125.984" fill="#84BE84" rx="3" ry="3" style="stroke:#038048;stroke-width:1.0;"/><text fill="#000000" font-family="sans-serif" font-size="14" lengthAdjust="spacing" textLength="141" x="361" y="129.9159">ligar(String numero);</text><ellipse cx="352" cy="145.0519" fill="#84BE84" rx="3" ry="3" style="stroke:#038048;stroke-width:1.0;"/><text fill="#000000" font-family="sans-serif" font-size="14" lengthAdjust="spacing" textLength="65" x="361" y="148.9839">atender();</text><ellipse cx="352" cy="164.1198" fill="#84BE84" rx="3" ry="3" style="stroke:#038048;stroke-width:1.0;"/><text fill="#000000" font-family="sans-serif" font-size="14" lengthAdjust="spacing" textLength="126" x="361" y="168.0518">iniciarCorreioVoz();</text></g><!--class NavegadorInternet--><g id="elem_NavegadorInternet"><rect codeLine="14" fill="#F1F1F1" height="105.2038" id="NavegadorInternet" rx="2.5" ry="2.5" style="stroke:#181818;stroke-width:0.5;" width="186" x="120.5" y="70.95"/><ellipse cx="150.35" cy="86.95" fill="#B4A7E5" rx="11" ry="11" style="stroke:#181818;stroke-width:1.0;"/><path d="M146.3813,93.45 L146.3813,91.7469 L148.7406,91.4813 L148.7406,83.2781 L146.3813,83.0125 L146.3813,81.3094 L153.5219,81.3094 L153.5219,83.0125 L151.1,83.2781 L151.1,91.4813 L153.5219,91.7469 L153.5219,93.45 L146.3813,93.45 Z " fill="#000000"/><text fill="#000000" font-family="sans-serif" font-size="14" font-style="italic" lengthAdjust="spacing" textLength="121" x="167.65" y="92.382">NavegadorInternet</text><line style="stroke:#181818;stroke-width:0.5;" x1="121.5" x2="305.5" y1="102.95" y2="102.95"/><line style="stroke:#181818;stroke-width:0.5;" x1="121.5" x2="305.5" y1="110.95" y2="110.95"/><ellipse cx="131.5" cy="125.984" fill="#84BE84" rx="3" ry="3" style="stroke:#038048;stroke-width:1.0;"/><text fill="#000000" font-family="sans-serif" font-size="14" lengthAdjust="spacing" textLength="160" x="140.5" y="129.9159">exibirPagina(String url);</text><ellipse cx="131.5" cy="145.0519" fill="#84BE84" rx="3" ry="3" style="stroke:#038048;stroke-width:1.0;"/><text fill="#000000" font-family="sans-serif" font-size="14" lengthAdjust="spacing" textLength="135" x="140.5" y="148.9839">adicionarNovaAba();</text><ellipse cx="131.5" cy="164.1198" fill="#84BE84" rx="3" ry="3" style="stroke:#038048;stroke-width:1.0;"/><text fill="#000000" font-family="sans-serif" font-size="14" lengthAdjust="spacing" textLength="117" x="140.5" y="168.0518">atualizarPagina();</text></g><!--class IPhone--><g id="elem_IPhone"><rect codeLine="20" fill="#F1F1F1" height="48" id="IPhone" rx="2.5" ry="2.5" style="stroke:#181818;stroke-width:0.5;" width="79" x="7" y="99.55"/><ellipse cx="22" cy="115.55" fill="#ADD1B2" rx="11" ry="11" style="stroke:#181818;stroke-width:1.0;"/><path d="M21.4688,122.4719 Q19.7188,122.4719 18.5781,121.7375 Q17.4531,120.9875 16.8906,119.6438 Q16.3438,118.2844 16.3438,116.4875 Q16.3438,114.4563 17,113.0031 Q17.6563,111.55 18.9375,110.7688 Q20.2188,109.9875 22.0938,109.9875 Q22.9844,109.9875 23.6563,110.175 Q24.3281,110.3469 25.0156,110.6906 L24.2031,112.7063 Q23.5781,112.3938 23.0313,112.2688 Q22.5,112.1438 22.0156,112.1438 Q20.8438,112.1438 20.1406,112.675 Q19.4375,113.2063 19.1406,114.1594 Q18.8438,115.1125 18.8438,116.3781 Q18.8438,118.3938 19.5625,119.3625 Q20.2813,120.3156 21.875,120.3156 Q22.4688,120.3156 23.0938,120.1594 Q23.7188,120.0031 24.5469,119.6281 L24.5469,121.8469 Q23.8125,122.1594 23.0156,122.3156 Q22.2344,122.4719 21.4688,122.4719 Z " fill="#000000"/><text fill="#000000" font-family="sans-serif" font-size="14" lengthAdjust="spacing" textLength="47" x="36" y="120.982">IPhone</text><line style="stroke:#181818;stroke-width:0.5;" x1="8" x2="85" y1="131.55" y2="131.55"/><line style="stroke:#181818;stroke-width:0.5;" x1="8" x2="85" y1="139.55" y2="139.55"/></g><!--link IPhone to ReprodutorMusical--><g id="link_IPhone_ReprodutorMusical"><path codeLine="22" d="M60.37,99.24 C73.22,79.41 94.36,52.8 121,40.95 C199.58,6 424.47,20.49 508,40.95 C533.62,47.22 554.3773,55.6707 577.7873,67.8507 " fill="none" id="IPhone-to-ReprodutorMusical" style="stroke:#181818;stroke-width:1.0;"/><polygon fill="#181818" points="583.11,70.62,576.9722,62.9176,578.6744,68.3122,573.2798,70.0144,583.11,70.62" style="stroke:#181818;stroke-width:1.0;"/></g><!--link IPhone to AparelhoTelefonico--><g id="link_IPhone_AparelhoTelefonico"><path codeLine="23" d="M60.37,99.24 C73.22,79.41 94.36,52.8 121,40.95 C196.13,7.53 227.56,16.3 306,40.95 C326.22,47.3 341.0712,55.0284 358.5012,67.1284 " fill="none" id="IPhone-to-AparelhoTelefonico" style="stroke:#181818;stroke-width:1.0;"/><polygon fill="#181818" points="363.43,70.55,358.3179,62.1318,359.3227,67.6987,353.7558,68.7035,363.43,70.55" style="stroke:#181818;stroke-width:1.0;"/></g><!--link IPhone to NavegadorInternet--><g id="link_IPhone_NavegadorInternet"><path codeLine="24" d="M86.29,123.55 C97.56,123.55 102.82,123.55 114.08,123.55 " fill="none" id="IPhone-to-NavegadorInternet" style="stroke:#181818;stroke-width:1.0;"/><polygon fill="#181818" points="120.08,123.55,111.08,119.55,115.08,123.55,111.08,127.55,120.08,123.55" style="stroke:#181818;stroke-width:1.0;"/></g><!--SRC=[PP3F2i8m3CRlUueU9-8J289uyg28YlVOnHceoKZR8OhlRdL_7AwdVac__Bw6EA1UmABPOwLIn22wYPuiEFFCJ3hJ81OqdymRLK7q0-dHeILXQ5tv8IXnQMvVbLwzienwnh82HNULOt9TXCbA1t5KfgcjcUCDLJe41EG2VqXAFW9TYIgIdEIH_sEsK6C9XUZwKs8C7GNlT2RTGKdS9utgUb91pL-sKiFo3FalGWH73-Yi3T0wyDwiTrTXDCzKQA-pnNYPWzvu2OFcA7hs1W00]--></g></svg>